<svg xmlns="http://www.w3.org/2000/svg" width="24.598" height="22.694" viewBox="0 0 24.598 22.694"><g transform="translate(-26.2 -28)"><path d="M46.373,31.757H44.88L43.954,29.6A2.637,2.637,0,0,0,41.535,28H35.412a2.584,2.584,0,0,0-2.419,1.6l-.926,2.161H30.574A4.371,4.371,0,0,0,26.2,36.131V46.32a4.371,4.371,0,0,0,4.374,4.374h15.85A4.371,4.371,0,0,0,50.8,46.32V36.131A4.448,4.448,0,0,0,46.373,31.757Zm-11.99-1.544a1.074,1.074,0,0,1,1.029-.669h6.124a1.126,1.126,0,0,1,1.029.669l.669,1.544h-9.52ZM49.2,46.32a2.855,2.855,0,0,1-2.83,2.83H30.523a2.855,2.855,0,0,1-2.83-2.83V36.131a2.855,2.855,0,0,1,2.83-2.83h15.85a2.855,2.855,0,0,1,2.83,2.83V46.32Z" fill="#09b29b"/><path d="M44.515,42.4a5.815,5.815,0,1,0,5.815,5.815A5.809,5.809,0,0,0,44.515,42.4Zm0,10.035a4.271,4.271,0,1,1,4.271-4.271A4.294,4.294,0,0,1,44.515,52.435Z" transform="translate(-6.067 -6.99)" fill="#09b29b"/><circle cx="0.875" cy="0.875" r="0.875" transform="translate(45.652 35.102)" fill="#09b29b"/></g></svg>