<svg xmlns="http://www.w3.org/2000/svg" width="20.939" height="22.131" viewBox="0 0 20.939 22.131"><g transform="translate(0 8.694)"><path d="M5.533,187.733H.79a.79.79,0,0,0-.79.79v11.856a.79.79,0,0,0,.79.79H5.533a.79.79,0,0,0,.79-.79V188.523A.79.79,0,0,0,5.533,187.733Zm-.79,11.856H1.581V189.314H4.742Z" transform="translate(0 -187.733)" fill="#e0515e"/></g><g transform="translate(7.308)"><path d="M176.2,0h-4.742a.79.79,0,0,0-.79.79v20.55a.79.79,0,0,0,.79.79H176.2a.79.79,0,0,0,.79-.79V.79A.79.79,0,0,0,176.2,0Zm-.79,20.55h-3.162V1.581h3.162Z" transform="translate(-170.666)" fill="#e0515e"/></g><g transform="translate(14.616 6.323)"><path d="M346.866,136.533h-4.742a.79.79,0,0,0-.79.79v14.227a.79.79,0,0,0,.79.79h4.742a.79.79,0,0,0,.79-.79V137.323A.79.79,0,0,0,346.866,136.533Zm-.79,14.227h-3.162V138.114h3.162Z" transform="translate(-341.333 -136.533)" fill="#e0515e"/></g></svg>